<mxfile host="65bd71144e">
    <diagram id="C5RBs43oDa-KdzZeNtuy" name="Page-1">
        <mxGraphModel dx="2272" dy="3117" grid="1" gridSize="10" guides="1" tooltips="1" connect="1" arrows="1" fold="1" page="1" pageScale="1" pageWidth="827" pageHeight="1169" math="0" shadow="0">
            <root>
                <mxCell id="WIyWlLk6GJQsqaUBKTNV-0"/>
                <mxCell id="WIyWlLk6GJQsqaUBKTNV-1" parent="WIyWlLk6GJQsqaUBKTNV-0"/>
                <mxCell id="zkfFHV4jXpPFQw0GAbJ--0" value="Roles" style="swimlane;fontStyle=2;align=center;verticalAlign=top;childLayout=stackLayout;horizontal=1;startSize=26;horizontalStack=0;resizeParent=1;resizeLast=0;collapsible=1;marginBottom=0;rounded=0;shadow=0;strokeWidth=1;" parent="WIyWlLk6GJQsqaUBKTNV-1" vertex="1">
                    <mxGeometry x="480" y="410" width="200" height="160" as="geometry">
                        <mxRectangle x="230" y="140" width="160" height="26" as="alternateBounds"/>
                    </mxGeometry>
                </mxCell>
                <mxCell id="zkfFHV4jXpPFQw0GAbJ--1" value="+ bearer mapping(address,bool)" style="text;align=left;verticalAlign=top;spacingLeft=4;spacingRight=4;overflow=hidden;rotatable=0;points=[[0,0.5],[1,0.5]];portConstraint=eastwest;" parent="zkfFHV4jXpPFQw0GAbJ--0" vertex="1">
                    <mxGeometry y="26" width="200" height="26" as="geometry"/>
                </mxCell>
                <mxCell id="zkfFHV4jXpPFQw0GAbJ--2" value="+ count" style="text;align=left;verticalAlign=top;spacingLeft=4;spacingRight=4;overflow=hidden;rotatable=0;points=[[0,0.5],[1,0.5]];portConstraint=eastwest;rounded=0;shadow=0;html=0;" parent="zkfFHV4jXpPFQw0GAbJ--0" vertex="1">
                    <mxGeometry y="52" width="200" height="26" as="geometry"/>
                </mxCell>
                <mxCell id="zkfFHV4jXpPFQw0GAbJ--4" value="" style="line;html=1;strokeWidth=1;align=left;verticalAlign=middle;spacingTop=-1;spacingLeft=3;spacingRight=3;rotatable=0;labelPosition=right;points=[];portConstraint=eastwest;" parent="zkfFHV4jXpPFQw0GAbJ--0" vertex="1">
                    <mxGeometry y="78" width="200" height="8" as="geometry"/>
                </mxCell>
                <mxCell id="zkfFHV4jXpPFQw0GAbJ--5" value="+ add ( Role, address )&#10;+ remove ( Role, address )&#10;+ has (Role, address) : boo&#10;+ length (Role),uint" style="text;align=left;verticalAlign=top;spacingLeft=4;spacingRight=4;overflow=hidden;rotatable=0;points=[[0,0.5],[1,0.5]];portConstraint=eastwest;" parent="zkfFHV4jXpPFQw0GAbJ--0" vertex="1">
                    <mxGeometry y="86" width="200" height="74" as="geometry"/>
                </mxCell>
                <mxCell id="zkfFHV4jXpPFQw0GAbJ--6" value="FarmerRole" style="swimlane;fontStyle=0;align=center;verticalAlign=top;childLayout=stackLayout;horizontal=1;startSize=26;horizontalStack=0;resizeParent=1;resizeLast=0;collapsible=1;marginBottom=0;rounded=0;shadow=0;strokeWidth=1;" parent="WIyWlLk6GJQsqaUBKTNV-1" vertex="1">
                    <mxGeometry x="60" y="130" width="210" height="138" as="geometry">
                        <mxRectangle x="130" y="380" width="160" height="26" as="alternateBounds"/>
                    </mxGeometry>
                </mxCell>
                <mxCell id="zkfFHV4jXpPFQw0GAbJ--7" value="- farmers: Role" style="text;align=left;verticalAlign=top;spacingLeft=4;spacingRight=4;overflow=hidden;rotatable=0;points=[[0,0.5],[1,0.5]];portConstraint=eastwest;" parent="zkfFHV4jXpPFQw0GAbJ--6" vertex="1">
                    <mxGeometry y="26" width="210" height="26" as="geometry"/>
                </mxCell>
                <mxCell id="zkfFHV4jXpPFQw0GAbJ--9" value="" style="line;html=1;strokeWidth=1;align=left;verticalAlign=middle;spacingTop=-1;spacingLeft=3;spacingRight=3;rotatable=0;labelPosition=right;points=[];portConstraint=eastwest;" parent="zkfFHV4jXpPFQw0GAbJ--6" vertex="1">
                    <mxGeometry y="52" width="210" height="8" as="geometry"/>
                </mxCell>
                <mxCell id="zkfFHV4jXpPFQw0GAbJ--10" value="+ addFarmer(address)" style="text;align=left;verticalAlign=top;spacingLeft=4;spacingRight=4;overflow=hidden;rotatable=0;points=[[0,0.5],[1,0.5]];portConstraint=eastwest;fontStyle=0" parent="zkfFHV4jXpPFQw0GAbJ--6" vertex="1">
                    <mxGeometry y="60" width="210" height="26" as="geometry"/>
                </mxCell>
                <mxCell id="zkfFHV4jXpPFQw0GAbJ--11" value="+ renounceFarmer(address)" style="text;align=left;verticalAlign=top;spacingLeft=4;spacingRight=4;overflow=hidden;rotatable=0;points=[[0,0.5],[1,0.5]];portConstraint=eastwest;" parent="zkfFHV4jXpPFQw0GAbJ--6" vertex="1">
                    <mxGeometry y="86" width="210" height="26" as="geometry"/>
                </mxCell>
                <mxCell id="VMtLbLihS7SMPBcjPKBf-11" value="+ isFarmer(address) :Â  bool" style="text;align=left;verticalAlign=top;spacingLeft=4;spacingRight=4;overflow=hidden;rotatable=0;points=[[0,0.5],[1,0.5]];portConstraint=eastwest;" parent="zkfFHV4jXpPFQw0GAbJ--6" vertex="1">
                    <mxGeometry y="112" width="210" height="26" as="geometry"/>
                </mxCell>
                <mxCell id="VMtLbLihS7SMPBcjPKBf-9" value="" style="shape=image;verticalLabelPosition=bottom;labelBackgroundColor=#ffffff;verticalAlign=top;aspect=fixed;imageAspect=0;image=data:image/png,iVBORw0KGgoAAAANSUhEUgAAASYAAAC5CAYAAACFg5L4AAAgAElEQVR4Ae19DdhvU5n+SRj5yGfGVzSNqcnQFGkw0REKg5pmEhMJjSI1kmkY5CNEGMnV+LhIzUykkAbXkfIxSL4lxCSSGRpiJvJt5r//171e937v/bxrPc/6vX7HOS9rX9d7nvWsZ933XvvZaz9nrbX3b61ZnRz/8z//0/HvN7/5TZ9mnkqBuUnFNM5J/6pfkK49FNf82fyp7YHpmd6WZs2a1c3Si+CF1UjFeekaLpbxeNTG8jVScV66hotlPB61sXyNVJyXruFiGY9HbSxfIxXnpWu4WMbjURvL10jFeekaLpbxeNTG8jVScV66hotlPB61sXyNVJyXruFimRJPC0ziGTqrRgrMTdZwsYxLJEaWr5ECc5M1XCzjEomR5WukwNxkDRfLuERiZPkaKTA3WcPFMi6RGFm+RgrMTdZwsYxLJEaWr5ECGySnFZg4fBgwOUpNBRvn9IZyJd82fzZ/Oo9kbyq1H82fF23JDUysECtp9f7qggTxkJbD6gFVb26cE3Mr1n9W7x0WJJo/mz9t27F60IR68zjaUgpMGjB69oqErXhJr6Dqi5Q4eLG094CKBDGWw+oVVH2Rxjk56VzyRe+sikSJo92jyf/MK9zYF5np/uwDExtAf2UVCWIiWUHVF4m4aO8BFQliIllB1ReJuGjvARUJYiJZQdUXibho7wEVCWIiWUHVF4m4aO8BFQliIllB1ReJuGjvARUJYiJZQdUXibho7wEVCWIiWUHVFylxtcAkn0f03qpIlBxq8yuo+iIWW9J7QEWixGHzK6j6Ihab03/4wx92p59+evfUU0/1OC+R48jleRzWlsPn8izO03P4XJ7HYW05fC7P4jw9h8/leRzWlsPn8izO03N45LXA1AJT+lbNazzWVmpMmn/AAQd0CyywQLfCCit0Rx55ZPfoo49amoGuWC89AAWKx6O2gGZgVpyXHoACxeNRW0AzMCvOSw9AgeLxqC2gGZgVp+k+MHFMOkAFihIhTQ7mUw9oBmZiKclh9QEoUIilbJxT54cCFw7M9CNlyZ/33ntv96lPfap71ate1S222GIpfd999w24qJCLssTJ8jWSXJSN88W57zX3hmV4byh5j/rARAMBNZKYSNZwsUzERTvL10hiIlnDxTIRF+0sXyOJiWQNF8tEXLSzfI0kJpLkevDBB7uDDjqoW2qppbqFFlqo23HHHbuf/vSnNCcZcdE+AAUKMZEMaAbmiIv2AShQiIlkQDMwR1y0D0CBQkwkA5qBucQ1tsDESJc70aAmgaL4xjn5P5z6JXDhwKy4ee3Pxx57rPvSl77UrbjiimmYt9VWW3XXXHNNqu/8VM+BA40yN+r5h3/4h903v/nNNKSezj36oz/6o+78888f1HRu1PPF5BxbYNJK2/TAY4FisSU9oBmYSxw2fwAKFIst6QHNwFzisPkDUKBYbEkPaAbmEofNH4BEefrpp7uTTz65e+1rX5smOf/0T/+0O/PMM93fZZJbaMIkMTn5oQ99KJ372muvDXm0QI4rl6eYKH3qqad2t9xyS3j94HnjG9/YzZkzZ0B5xhlndL/4xS8Gebk65fIGoEDJ4XN5Ac3AnMMjrw9MjNQDVKCUSJnfOOu/Poar6beSfKn589lnn+2+/vWvd+gxoCG++c1v7k488cTu4YcfnuKLcV77f/zHf3SLLrpot8Yaa3R77rln0MqH5tK9Yf4465njzAWmYQ0nNGJLcm7XM1enXF6pfn1gYoEcuJRHTCRL+Fx+xEV7DlvKIyaSJXwuP+KiPYct5RETyRI+lx9x0Z7DlvKIiWQJb/P/7//+L/WY1l577RSgXv/613fHHXdc99BDD00JUBbr6aX6HX/88d0f/MEfdN/4xje617zmNR0CJA+8QVxllVW6JZdcMvXo8MkDD9hWWmml7tWvfnW38sord1/5ylf6+t12223dFlts0S299NIJhzm1//3f/yU0Bdtddtkl4YBHL5FvKnUoB9zv/d7vpcAJCT/wOhBEMUeHofDv//7vd/vtt1/i16EcXi5ss802fT3+7u/+bhDowbn//vt36623XvLB7Nmzu//8z//s6+klWI9IehzWVuJKgYnRE4VGOZRUOZCveuOs80Dz5/+kYcrmm2+eAhSGel/4whe6X/3qV/3DWefJiVIlf77tbW9LDzUm5TEhf8455yQAhlPLLLNM98tf/jLpv/71r7vbb799YLv11ltTXX7+85+n+TGc47//+7+7t7zlLd3OO++c6nrTTTelh/7YY4+dqEjXde9617u6D3zgAx04EbCuvvrq7oknnkh2DUynnXZahyAHzgsuuCC90bz00kvTOVE412NiYPp//+//deuss073sY99rK8HAtjhhx/e+w+BCUHx/vvvT3kou+uuu/b19BIlfyJ/3M97CkxaGXsST1ecl/Y4YFO7x6M2xVgOqyvOSzfO4fpb2tjUN54P1aYYe0+srjikr7rqqg6T4694xSu65ZZbLr3Ve+SRRwZtxXJY3XJCR6BBo//Zz36WzB/96Ee7zTbbLD1YmG/CZw3oSWkwBC9t5513Xh9QyI9AsuCCC3a//e1vmdWdcMIJaagI7HXXXde98pWv7NCbYR0h6V8Glh4siW233bY75phjUg4w6OmdffbZPQ84GNh+9KMfpXpoDwiBbq211uoZEagw0c4Dadhz9WIe60lMJPXaLIfVS1zZwERwJHOkDzzwQOomoqvIP/wPVftHTCRr+VAu4qK9cdbdJ/orkuPw55prrpmGJWioSyyxRLfxxhtPecBL7TTXPvfee+/Uq6DtkksuSUEDny+ABxPRuC7MQW2yySapZ0N+2N7xjnek4PWe97ynQ+8Jx0UXXZQ+JCUnJN6SoTcGLHpkyy+//ODhJyekBqZvf/vb3QYbbJCGg6uttlq3+OKLd/vuu2+iRlkbmJDHwISAxfOwLpdddlnyH3UEpu9///tUu+985ztp6Kj1KaV7UJAo4XP5JaqxB6Z77rkn/Y+UiLEKXftrPhhDG1hkkUWSH/GxJoZBuUZu82yjx1wS5pTA8bu/+7vpDw8y2ii+VFc8eh27775799a3vnWQD070jPbaa6/0ny30XI8J80+YXAcne0wYIuo5mGZgwqT87/zO76TrY9232267DvNEOFD+DW94w6DHhDwGplyPCXNktsf0sgxMeBWMhqN/F198cVf7pzgvXcuHch6P2hpn3X1Sn3npF+JP9GT22GOPbtlll02B453vfGd35ZVXZh9sPuBW8uGmRI8CAe7OO+9MQzUM1/CHXtTrXve6Dg825nUw94RhIyaX0esDL763gu2ZZ57pMFl/yCGHpJ4VuDG3g4l7BLInn3yyu/vuu1PP5vOf/3xfX/S03v/+9ycb3joiOGB0AW4GJgwz0UNCHg704tBL1MC04YYbpnk3vVYGJsxL/fEf/3GHSXbWA3NSHAqC8yXVY+IYk86gnrxX8Q9xKsnBPOoVdKkIcSrJwTzqjTP2AH2mkv5jHvWYbaIEcSrJwTzq5ERAwJspzCthfgkTxjfeeCPN/YNOPCQ5mEe9Bz2fwFuz3ETvXXfdlXoqBx98cOohITjg7RqCCYIVeDEkQu8JgQIT5HibhZ4SD/SGtt5662TDpP0+++yTJrpZJ0yWo/eDHhreymG4iF4Z7AxM4DrwwANTrwgT1B/84AdTMNPAdO6556YgireGu+22W7p2BiZwoU54eYA6oh7oCT733HOsZlVgov9Yd+o9SZAgTiU5mEe9ROUO5QgmmZUlUpuvuMaZ/5obPqo9Xor+xEOK39UhKGAiGT9b4RyO+uWleO16fV765XTtbmBSR+TSnhPVlsOW8hTnpUv4XL7Ho7YctpSnOC9dwufyPR615bClPMV56RI+l+/xqC2HtXk33HBD6hksvPDCacIZwcl+xTwqJ8+hOC/N8jXS41FbDRfLKM5Ls3yN9HjUVsPFMorz0ixfI0s8LTCJZ2ocyTICc5MsXyNdIjHWcLGMwNwky9dIl0iMHheGSO973/vSb+bw9grDN3xQGR0ep7VFXLRbnKcTE0mPw9oiLtotztOJiaTHYW0RF+0W5+nEWDmtwMThmCUr6V7FaGuc0xvK0X9Wzq/+xKQvXrVj/ohrNeFtVO1hrzOnz6/Xbuva6llu825gouPoUKtPpzFZDqs3ztgDvB+Q1n9Wj9kmSsxtTnzI9yd/8ifpDRveDJ100kndf/3Xf/WT2fNLPa3/rN7qGXtgHG0pBSZt4PFpJ0vYm1bSJxFxqsTBi6U9ZposQYzlsPokIk41zslJ/JIv8NML/EgXP9dAQ8PPJf71X/81vW63Hi5xtHs0+Z+P9Zmnz3R/9oGJDcC7WGsjJpIW5+kRF+0eh7URE0mL8/SIi3aPw9qIiaTFeXrERbvHYW3EeBJfPvNHuXjNftZZZw1+1DodTpxvlMOrn9oaZ50H1Gdeuo5tolSJpwWmtuZ3Gk6NozFpI/vyl7/cvfe9752ydlDpPIr10iV8Lt/jUVsOW8pTnJcu4XP5Ho/acthSnuK8dAmfy/d41JbDlvIUp+kWmFpgmiuBCY1slEMbpZdunHUe8Hyotjq2iVKK89Lj4OwDE8ekL4SUHKw09cZZ5wH6jZL+s3od20QpYikb59S5sebPOg+wDVHOzbbUByaerK6K+UZPDisbZ50HrN9Keh1bu0cl/9n85s86D1i/lfQ6Nr99ji0w2eiplZ5uRRvn5P/uzZ8Tvmhtqc4D2l5m4nM0tsCkjrDpOldOlLLYkt446zxQ8p/Nr2Nr98j6raQ3f9Z5oOS/PjAxqtbR1TXQxjneCeDmz+bP2uez9MAzf35vS31gYoVrLxzliIlk46zzQORH2uvYJkoRE8nGWeeByI+017G1e0R/WZkCE6MnjKMcSqYcyFe9cdZ5oPlzYh5J205rS5PrsNe1oolSM70tpcCkF2wbgqcrzkt7HHQgG6PHo7bGOdlgPV+oz7y0xzGde4RVHbETB++r5bC6Vze1jbue4G6c819bygYmNppIaoPx0hGP2j0etSkmSivOS0c8avd41KaYKK04Lx3xqN3jUZtiorTiSmn8Lg47g2AvtDvuuCMc9pd4bH5UN7VbbElXTJQucdj8iEftFlvSFROlSxw2P+JRu8WWdMVE6RJHC0zimciJaheYm1RMlHaJxBjxqF1gblIxUdolet6In6NgvW4sI4sF9nfaaae0RG6Ju4YTZUr4XH7jjD2Q81spL2abKFHC5/JLnC0wiWdyjivlCcxNlvC5fJdIjDlsKU9gbrKEz+W7RM8bsVb3m970prSjyJe+9KW0uy3WYMJaTN/73vemBJgaTpTJ1aeU1zhjD5R8l8uP2SZK5LClvBJnVWAqzROUSG1+rlKNc/LjSfrC+q2kzwR//uVf/mXavojXgN1FsAQKth9Co8PaTGeeeWYfaFgukjPh2nENrZ6T7Ru+YBunX6iX7rcbmAgmmZUlUpuvuMY5vGHqG+u3kq6Y+dWff/EXf5F2/7DXgK2PsCYTl0TBDiEnnnjiYCcPi1H9xbp2bKWNzSD1fEjXHorjPdLdTNT+QjiVR9MzndMNTHqhufR0Lj7Ho3mNM/aA+itKx2wTJSIetddwYg817KLrHVhmd/311089qNe//vUdhnxPPfWUB5kSKLReNq1E2A7p6KOP1qw+bXHQxxmYyI+dfG+55ZZ0Dbqjbl+RIEGeGhlQ9eYaLpbpQUGC5WtkiaoFJvFMjSNZRmBukuVrpEskxhoulhGYm2T5GukSPW/88z//8+7Nb35zTdG0keVWW22V1gHHDrnYmAC9jNxRUz+WUfy8DEzY4BJ/rBdkC0wTIwe9R5qeVmBi11SJvLTekFK6cU5vmDC/+hNv5bAr7CjHj3/847SfHD4zwNs8bOWEnXL1KF2v5ufakg1MWHccO+ViU0sECUjsfEse9JiOOuqotBwwthSnnXXBrrc777xzt9JKK6Wtxj/+8Y93TzzxBM2px4WNKrGTL3b5vemmm/qtvP/6r/+6W2ihhdJmDDgPdvzF8YUvfCFtSLnYYoslefLJJ/d8SKDs/vvvnzbLzNUZOwDvsMMO3Yorrpj8h2t+9NFHE0epvrxeT+b8OaiYUTwu2iJONzARbMmom/oUVZaHbJyTc0zWF0UHGsNM8Oc222yT1vo2Va9SsWstghI+M8BDijR2usUx3WvPBSZsO/74448nTgQZbLLJe4IgsNZaa3XXX3992jEXu/jCzmOzzTbry+Phxy68n/70p2lOQQRBCTvAkJNzTNBzPSa8DLjvvvvSluOXX3552mcP5+eBOuE6+OEq68znaqONNkpbYsF/WG8d27czWJbqO11/sk45OQ7OFJh4YZCjHHQ4KwIdO19cdNFFg7+rrrqqq/2z2JJey4dyJQ6b3zjr7pP1W07HW7faoVypzd17773dLrvs0i2yyCJpd95tt902PWyl8jZf2yfqgx4S2yoe8q9+9atJBw5rlGPTBB7oUeEtIo/zzjsv2cGJTTqxWzB2D+Y5/u3f/i1t/03d4sGjW4G/8Y1v7JcdJoZ1o47hMOpMHZzYbYaH1vnOO+9MH7SiLA5iwKn15TmuuOKKVF9y1UjlBE9Jr+FimRJHH5hYYQJqJDEq0R1PpLNmNfky9wF6BeM4fvKTn6SHeoEFFkht6tprr62i1XaJwHTooYcOAhPfuoEME/F48HkgjTwetIPz3HPPTYEJ18c/lMcHpdi0E2WgX3zxxYQnWQpMrOfXvva17u1vf3u38sord6997WtTb3Gvvfbq61yqE8jxbRjm53iQM6rvs88+S0goldNLh0RSoMQz9sCEyA3n6t8GG2zQ1f4pzkvX8qGcx6O2xll3n9RnpTR218UHli/kwDDk+OOPT/+zo6HOnj170IuJuLXRjzMwXXfddWmYqfvi6bmQtkEEddXABN/MmTMnXQLK33777YkTwYxceLNZG5hsj4kckF59Ix+qXTm9tGKidIln7IEpd6KocmrP4XN5ionSOXwuL+JRew6fy1NMlM7hc3kRj9pz+FyeYqJ0Dm/zMKex7rrrRlRZO+ZQMK+0xBJLpIf1Yx/7WJo8xjlGObRO4wxM4MX81Pbbb99hPgcTywgs3/rWt/qgEgWmjTfeOH0egesB3zXXXJN6SBi+QkevcPHFF68OTOBB4N5uu+3SG0C8BUQv74EHHkh8pfpO15/qW5seB2cfmDjWeyGk5GBFqTfOOg/Qb5T0n9Xr2CZKEUv5YnFuuummqac6Sl1/9rOfpQllTHrjTRgCEoZxqDvrPQofrxkyN8eEeSPYcHCoRn4bWGgn5y9+8Yv0Vg7DLgQQfNFu54OA0UN7TOgZ4dst9Cx32223VI+//du/7VZfffX01g29JUyoo8fEay/Vief49a9/3X34wx9OQzq81VxvvfXS5DvqjICHyXLWF3NcqO8oB6+dkvWy+jg4+8BE8hdCSg4rG2edB6zfSnod20SpEofNHzfnJptskoJBDe9tt93W4ScsmEPCg4rX7HfddVd6WOd2PcE/ymHrU9IbZ50HSv4bW2Cy0VNPWFfFiVKKa5yTnxaoX2aCPxGY8FW3d+B1tn5Yie949PW6XjPTHp+1EQPZ2tLMaktjC0zaCGzaNhhPt9iS7nFYW4nD5lucp1tsSfc4rK3EYfMtztMttqR7HNZW4tB8zKHgZYI9sIAcfiuH73HQ+DB0wWt5byJZeS2fpyvOS3sc1ubxqM3iPF1xXtrjsDaPR20W5+mK89Ieh7WVePrAxP9RLNDTS6TMb5zjHSbMJH9iIhbBhwc++EMAwtfgaHR4KwWdr6vZZkpyJl07rmGUo3TNzH85XnsfmOiEcTq0cY63gc4kf+ItEH7GgR/l4se5mOhFY8PnBegxYZUBPXhtkVRMlI64aI941E5MJBUTpSMu2iMetRMTScVE6YiL9ohH7cRYmQITIzKMoxxKphzIV71x1nngpeRPBCUM0xiQ8FYMb8EwlMsdL6Vrx7WMcrRrn5j/0piRApM6EU7SAp6uOC/tcfCm8Jwej9oa5/y3gLzen1VXXTX1kNBz+u53v9u/YeN9bvd98jlTv3npl1ObzwYmNppIek5UW8SjdsV5acVEaY9HbRGP2hXnpRUTpT0etUU8alecl1ZMlPZ4aMOPbvHbw4iLduIiyfI1MuKivYaLZYiJJMvXyIiL9houliEmkixfIyMu2mu4WIYYK1tgEo/QWTVSYG6yhotlXCIxsnyNFJibrOFiGZdIjCxfIwXmJmu4WMYlEiPL10iBuckaLpZxicTI8jVSYG6yhotlXCIxsnyNFNgg2QKTuKPGkSwjMDfJ8jXSJRJjDRfLCMxNsnyNdInEWMPFMgJzkyxfI10iMdZwsYzA3CTL10iXSIw1XCwjMDfJ8jXSJRJjDRfLCGyQrApM45gXYEUoG+fkB2/0xeDOOAp9qJIczKPu0AxMxKkkB/OoD4COQpxKcjCPukMzMBGnkhzMoz4AOgpxKsnBPOoOzcBEnEpyMI/6AOgoxKkkB/OoOzQDE3EqycE86gOgoxCnkhzMo16icQMTwSSzskRq8xXXOCcDkvoF6dpDcc2fzZ/aHpie6W3JDUy8yJKczsWXuJjfOGMP0Fc1MmabKFHDxTKNM/YAfVUjY7aX3z1qgUlaRU0jYhmBuUmWr5EukRhruFhGYG6S5WukSyTGGi6WEZibZPka6RKJsYaLZQQ2SOrKAUhjpUliIjkgchTwcHnecXJGXLQ7VRuYWL5GDoCiTCswcfggPG6ypoKNc3pDuZJvmz+H/uRv89DgsSQI1sfGAmo4Sj7U/MifGpjOOOOMfpsm5bDpiFOX32U9dQsoywc94rQPquXAbxbhH6wzRdsL5SSPyojTDUwEk9Dq9iJLOvGQlsPqJQ6b3zinfi2b86/1W0l/qfsTgQm7njz33HNp+VusW4SPQHGM49o1MI2LMxeYWFf73Fi9dJ9tPvkgwXH22WendZyoq91iS7pibL2sXuJIgUkrUSqYy7cnKek5bCmvxMGLpb2Ez+UTYzmsnsOW8hrn5KRzzhfYZgirWGLJ15ojx8H7A0l7DRfLEAO8XSgOGyig8WPBNxyl7Y3Ixa2VFl100bQDynHHHZcCGs/BIRZ0pLFRAM6Bhdn4t9xyy6VzclNPj5NbPGEdb2ycwB1YNABiRxXsRrPMMst0q622WtqPDz+WxoF6AMftnrCQHbeg8vy5xx57dF/84hd52QPJa+V9KekDUKCUOPrAxJMFPAMzMZEcgAIl4qI9oBmYiYnkABQoERftAc3ATEwkB6BAibhoD2gGZmI8ia2LsPAb/rAI3I033jjgsIrHpTaL83TF6dK6jzzySPeJT3wiLfiPgISjtL0R+bm1EspfcMEFaYXNSy+9tO9tMTDhnAxMxEIiYOAcO+20U58dceoWT+DFwcCE3xyus846aZXPJ598Mg29UP7YY49N5VBet3uCrts9QSdnX6GuSz4p/WdCTCSVL0qXuFpgev4G5W6S59SSQ22+x2FtFlvSLc7TSxw23+OwNovN6e973/vSA4qVBbDjBxoahlNYWSD3Q94cRy7P1sXTFY/AhCVwl19++bQdFHoiWGcbZbCkL7Zj+u1vf9vTYYPKFVZYodeZICe3VqIeBaY999wzXf8zzzxDql6Sw3J6gQmrfto6n3baaWkvPBCDE4EJeeTHhDz2yqMOqcfNN9+cdn3RPE0rzksrJkqXeFpgaoEpNdSoAam91Jg0Hzvx4n93HFhzCWsvYQ0mNDisyQSdww6UUayX1npEaeVBYPrsZz/b/fu//3saYuGhPeCAA9J5sf42HnLM6fAPQQFDL64X9e1vfzstfIdhWW5rJS8wnXTSSWmo9eCDDw6qHHF6gQnDRBs4L7vssm7ppZdO58C14xq5RRV0pJGnftEKYXurz3zmM5o1SCvOSw9AgVLi6QMTx3oBz8BsScnBfOoDUKAQS0kOqwc0AzOxlI1z6vzQwGGBQj9S5vyJuY8111xzwIQ1mNBjQpBAw8OSKOhRYc6FXJQ5TthGOcgFiXPqhpcYjmEjTexucscdd6Q0537sObDcLzZIwFLA5OTWSqwnAxN0HcphuIdgccsttwxoazgxL4TJaJ4DBBzK5XpMp59++pQeEwMTODQwKScrhuE3Nu4sHbx2SnJYvYTP5RNLSc4+MNGQA5fyiIlkCZ/Lj7hoz2FLecREsoTP5UdctOewpTxiIlnC5/IjLtpz2FIeMZ7EDh8YNpSOK6+8Mq33jQaI//kPOuigfqshj7fEl8tXHgQm3fAStg033LD76Ec/mqBYoxzzP9hpBENNBI4LL7ww2RC8MAwkX25rJQYmlGFgwit39LqwDpU9ajhRP0yQ87zgYGBCHddee+1u99137zDHdPfdd6fe3jHHHJNOBcwoPSZs84QNO7UXa+vMekTS4jy9xDW2wMRIlzuRVzFrU3zjnOzZqF+szzxdcS+mP7HJQM0W4ZjX2HHHHdP21ngwsEMK91bTujPtXau1EQOJrYxsYEKvCT0hbPWNSW1sF4VhGvazw7CTDzl4DzzwwLRFEwKcbq3Ec+QCE4IKhoh8K0f59NNPp6pGnNjx93Wve1235JJLpi2eAGJgQhpLy+A/ALyVQ70xNMXnEDhQLwYm3nftMbHeqXDXdaecckq3ww47UM1KYiDJqXlMZ8GFTGIs59gCk57Apgt1ymZbbEnPgguZJQ6bX4Bnsy22pGfBhcwSh80vwLPZFlvSs+BCZolD8//sz/4szSUVKKZko3eBCWIEisUWWywFCQyxlBPpUQ6LLemNs0u9V2zY6R0l/9l8j8PaLJZ6H5gYAS3Q00lSko1zvA/STPLnlltu2b3lLW/xmk/Whl4AAhQ2vESQ+uAHP9jdcMMN/f/QWVAhs9QumT+T/Ik6j3LwGkvSXjs+Pn3sscfcU5S4mG85XbLnjcRa2QcmGmrIWIaYSLJ8jYy4aK/hYhliIsnyNTLior2Gi2WIiSTL15EsrHAAACAASURBVMiIi/YaLpYhxpNbbLFF99a3vpWQkSXmejDUwcQxvoXC5wd4vT/K4dVPbY2zzgPqMy9dxzZRqsSTAhMjHQqNcigpOfBNCLrx+odGVfrDuF6PHCfzcA7yl/hsPviJh2Q9mac66oFXupYjp/P68NGacthz6LVF/ORUCf6IU89h669cuTT5lcNLgz/HY/PwvRDmaV7ogY8hMUGNL64RoLBN9v33319Fy3ts/Wf1KrLnCzXOiXnPUdq859+SP1NgUqC9aZ6uOKbvueee9Co4Ec+aFabxeyU9B3lKcjr8JS6bj3rgtW5t3VEOk5PeodeG9I9//OMXzG85VZ8uv3IgXdJH4cfr7hd6PPzww93nPve59FYMgQk7r9i5p9JDUnvu0rXSD2pvnLEH1F/04aj3KBuYSBbJXBWfeOKJDm8T9O+f//mfu9LfOeecM+jR5Dg1j/wlPpsP/toD14vXppYjp/P6vve977n01ocePzlV5vgtp+qWX7lyafIrh5cGf47H5uFV9nTmmOhMfAiJt0QLLbRQ6i195CMfqd6tl/UnVyRZvkaWuPRtGcrUcLFMidPms3yNtNiSXsPFMvYax8FZ4hh7YMqdiBdWI3P4XF4NF8vk8Lk8lq+ROXwur4aLZXL4XB7L18gcPpdXw8UyObzNwxzTuuuua7ND/frrr09viNA7wmtwfN+EXhMP1qFGEgOJn8McffTRmtWna7hYpgeZhH1oWb5GGqqiWsPFMkpiVylQG8tbab86hx3LufBHz8ph05bL0y2WegtM9MRL9H85uTw36TUea3OJnjduvvnmadfdmrIo84Mf/CAFDzTIVVZZJX0Rrr9dI4+ti6cTA9kC0xx1R58u+S8XmHpQkChx5vJLVFWBadTxoT1ZrkKNc/LjSfrC+q2kzwR/vuc970k/AyldA/Lx9TJ+orLBBhukeTfMSeE3dLkfupJnutduAxMm0bF0Cd4c4rME/PIfvYFdd901zWdhGRHdqBMfK+J3ZFhgDsNUBF6dhNceEz7W/NCHPpS+aMdLALxgwBCY9xlcRxxxRPoAFefGpxXAYMkRfNwJ+yWXXMJL7pdkwRfyygdfgBPl7fIm+GgUBz69wHB4xRVXTC8O9ttvv5RfWnIFnLvttlvCcMmVvffeOw1N9Rq9JVfAoXVCkNMlV1hvyNLhBiY6EgS5vxKpzVds48z70rtJM9Gf7373u9PX1rbu0PF1MgIQfkuHBoi5KAQo/JYuOqbblnKBCQEGH3bihQq+Usdv9/CDW6ziiAcXwYnnw4OGZUYwx4nj4IMP7jbeeOO+uvrQIsjh+yt8k4UHGEEMQUe58ENmrGCAcyM4YlIfPsHv9fD7QZyPB5dk8fhwfQiUOAcCIQIsj9xQLrfkCn4EzDrmeky8RvyHUrvkCgIy64Qv/MlPyTpa6QYmgkvSkpX0Ej6XX+Kw+TlsKc9iS3oJn8svcdj8HLaUZ7ElvYTP5Zc4bH4OW8qz2JyOh2n99dcfmPCbLjx0eJOJhvf2t7+9//X7oKCjlOqUy1eaXGBCIMABLH7OgUBFHgQU1JE/j0GgOOGEE3pKDDNhx2/qcPCh5RIq6LGQCz+MRU+HOrhOPPHEXj/ssMMG83GPPvpo4kZ58uF8xOf47PIm+uIhF5h4IeSMllxBOV5j7gfE01lyBZylowUm8QxvUo0UmJus4WIZl0iMLF8jBeYma7hYxiV63rjpppumIRpU4DCJ/ZrXvKZ7xSte0WGYN2fOnP5Bg732YB1qpHLmAtP3v//9VARcGFphSEVefOCJhwM/tkUegslZZ52llGnIx48++dByCRX0OPiHYSN+B/jQQw/1XPzVP7gxpMQyMTzQo2TQIx+CSy0fuHFOHrnANOqSK6gnr3FcS66As3RMKzBxOFYitfmoQPTXOMs3aSb6E7/WR4/ok5/8ZJo3eeUrX5mGN1hVQNvCi3XfxxGYdMlZfGjK4IH7w4eWS6hgOKjXqWkEOQQPXrsXmMiXWxqGnOSDDk4bmPChK/4j4OEtuUJOLrlCTkheY67H5C25AizqhHqSn9fOOlnpBiaCLRl1S1bSWR6ycU4GaeuLkv9s/kzwJ35tj2CEP/wavxSQeC32Gks6y4/almoDE+8Je0w//elP08OEhwo9FswJIUhgiRRMhPPgQwsdQXn77bdP81eY1AYHfiDLumsgQZ4XmMiH82E+DHzoxVk+LK1CfhuYMBeGITSP2iVXjjzyyJ4T3LzGUZZcoT8ZmKizrqyTlSkwoRABtoCnE8OTlHSPw9pKHPYcFufpjbMcDOkbz3/WRoy9J6rvtddeKSBhjqTmqOEE/yiHctqF4hAc+DCDMwoOGBqhx4SHE2/O3vWud6UAwXNw2RPoeLvnLaECLg4jcW5MtOswEt9t4cHkMBLzXJjQLi3JYvnArb0TfPyqy6fAj1jNExPuCNiYqMd/HlhyhgeGkHgZsNRSS6VeL/J5jcDfeuutaVIfv2XEci777LNP+t6M9yhXJ+TZg/4DDn/U+8BEgwV6OjGR9DisLeKi3eI8nZhIehzWFnHRbnGeTkwkPQ5ri7hotzhPJyaSHoe1RVy0W5ynExNJj4M2PmgRF+3E1UhiIlnDxTIRF+0sXyOJiWQNF8uUuFpgkvkvOqtGlhxq82u4WMZiSzrL18gSh82v4WIZiy3pLF8jSxw2v4aLZSy2pLO8J1tgqv+ZjedHayvdkxaYWmBKXWjbYDy91JhsvsdhbRZb0i3O00scNt/joK0FpnkUmDi2442okfYGk4P51Gu4WIZYSnJYneVrJLGUjXPqnFONH1mGfqRs/mz+RFtgO2A7qZFsQ5TkaD2m1mNqPaaaJ+j5MnyAIjkC5eDNl8f7cuIcW2BipMs5droObZyT/xOrX5s/6zygPmttaWa1pbEFJm0ENl3XjCZKWWxJb5x1Hij5z+bXsbV7ZP1W0ps/6zxQ8l8fmPg/Sh1dXQNtnKN9d1O6Scxv/mz+rH0+2WZKcn5vS31g4gXUXjjKERPJxlnngciPtNexTZQiJpKNs84DkR9pr2Nr94j+sjIFJkZPGEc5lEw5kK9646zzwEvJn8cee2yHpU/ww1dvd1d65qV07biWUY527RPzXxozUmBSJ8JJWsDTFeelPQ7eFJ7T41Fb4/zNoMdK/80v/rz88svTGkdoYPgGCL/Vwg9b57d6ok21tjT/taVsYGLjjqQGCi8d8ajd41GbYqK04rx0xKN2j0dtionSivPSEY/aPR61KSZKK85Lgwe/ascyJ1juhFuA44ew9hwej9osztMV56U9DmvzeNRmcZ6uOC/tcVibx6M2i/N0xXlpj8PaSjwtMIlnrNM8XWBu0uOwNpdIjBbn6QJzkx6HtblEYlTcVVddlX4suuCCC/ZbgPNHqihXeyhnlG6csQciH6o9ZpsooZgoXeJsgUk8EzlR7QJzk4qJ0i6RGCMetQvMTSomSrtEYszxYF86/PIea10vvPDCKVhdd911gvKTOc5Sns80aS3hc/mTKD+Vw5byfKZJawmfy59E+akctpTnM01aS/hc/iRqmKoKTOOYF7CVapyTH7zRF8NbU9asL6GTgzbqZZahhTiV5GAe9SGyrBGnkhzYNw7LbLz61a9OO+xutdVWXU2AUi6myWn1cs2GFuJUzk+cWG0Sa2xr/Zien+pJr7JuKketpxuYLJmeCOnaQ3GNczIgqV9erv7E2tpYjwg7gKAxYn0gbExQOtRno7YlcKcGP2tWGk5ibSXsAHLXXXf1D/2onHOjnpYzF5jmx3qy3i/kHpHDDUx6glyaJJHMYUt5ERftJXwun5hI5rClvIiL9hI+l09MJHPYUl7ERXsJn8snJpI5bCnv8ccfT2/usBiaBiislqhHCZ/LVxzSCExHHXVU2qUFS+NeeumlaRXKlVZaqUMPLsdh8yxnSbc4Ty9xMD8XmDw+2GqPiEftLyZnC0zibb0JUVpgbjLiUbtLJEbFRGmBucmIR+0ukRgVE6UJe/bZZ9M2RlinGo0TWzxhNxMs0I8j4lE7OSkRmOxuvNi5Bas7fuITn+i5sQJlbl84cOPA5w/Yx620x1xpXznWDatLch84LNc7e/bsjvvAgR9vLZGHYe7b3va27vOf//xgKOfVD+cAPzDYyw2rTio/VsfcZZdd0qqT4MfKnuy1wj+sI+TJJ5/cYe1v5tGPkWT5GlnimlZgYjcyR4oGhLWJ9Q/7Z5X+sEQnLsDj1POQv8Sn+TfffHNaAlTxXhr1wFrPymHT4EQerw97fXmHvTk5fstJbsgcv+VUnfweZ45fOUpp3CPwK95Lw0+8vx4nbDx4f7Ek7ymnnJL2nEMjRU8K30L96le/6h+UWk5y5wITbAhK2OeNfFgju7QvHMojMGGjhdIeczX7yqEu3HMNLwO4Dxx6iNhnDksTY+NPvLnEzsQ6x+TVD/cIgemd73xnh14oDuXHksAf+MAH0n3Eh69YQhf1uPvuu9MLCbycoB8Q0A455JDqZzOdrPI/j+h5dwMTwayo1VkRlYj2iXTWrCq56qqr9o7AeaJjOvwRJ+04P27MKPXH/7beQd9Bwn/j4Lecqt9yyy3Tqr9y2Pus+qj15/1VDvpCz0kflu7vYostlq4LnxtwY4NaTnKXAtPhhx/esZ433nhjh3NwXzicQ/dxAxcCE/ZR46F7zHEfOOJxjVdcccWUfeV0H7jzzz8/BWDwIZDjjSWDHvIQHBiYbrjhhlQ/bm4JftQPu+bSnwhM3/zmN1m9jvx33nln2hwC18SDGEjsLYcXEkhjJxS8NdUhLjGRVM5R7xG50zMIIhLQUCOJYUWgI8LjYdU/LGpe+kNk1yPHSX5I7DgB7hKfzQd/xEk76oGtbSxHTuf1sftLDtaVul5bxE9OleQHb4lTz2Hrr1y5NPmVw0uDP8eTy4Pf7P0tcfPabPvB1taLLrpoCkr4QPOv/uqvOgy/ag5y8p6st9563aGHHto/wLRjAhybXeLQfdywHxv3c1tuueU6DDOBwYOPn9roPUHgxCYA2A0EgY1Yi8c5ENh0MwJsigBO8J199tl9kGS92XOsqR/5udECOLhDyTnnnNMHSF47yvPAfnGoB3ptCNZbb701TUkSw3qV9AEoUEocfWDiyQKegZmYSA5AgRJx0R7QDMzERHIACpSIi/aAZmAmJpIDUKBEXLQHNAMzMZEcgAJFuTAPgp1qsW03GijmSbBv2SOPPBKwDM3KiTTmUzQwIQ8/k0GgQHDCofu4DdkmNGDw8GLHFPKjl4R6Iqjikwf0eLDFU+mwgYmBA3xXX311emMIH5Af80XcWTeqH84JfnAST37UDdtpYXqANq0jtmjHkBlbhWNuCbur6EFMJBUTpUtcLTC1FSxTI40akNpLjcnmKyZKA4udarGNEnpaaJiY+D3zzDPTXmrkjnjUTgwlAtPBBx+c5lfwicAFF1zQbbjhhmkiGPMsPLAvHPZxw3waeg/oJV544YXJDC4EJkxaY1iLwIY95DbYYIP+YUcvsYQHiReYMHGOCX9M0uNcCCI4FwMT8F79yJ8LTODDhDi2asKcEoLfj370o8Gw8XOf+1yab8Ouyegh6kE/RlIxUbrE1QJTC0zzPDBhPgXfMvFTgdwW4mzAUUNXOzGUCEypwc+a1b3qVa9KvYI99tgjBRfFITiU9oUDFwIT5n3sHnM8z6j7yrFHQzxeGiCAIBgh4O25556DwOTVD9dR6jGBHy8rtttuuzSkw1s5nOexxx7rLx91x+8aP/3pT/d5TLB+kWT5Glni6gMTx3o1ZCxjScnBfOosXyOJpSSH1Wu4WIZYysY5+ZEnfUFf1Uj6kZIcVo+4MDQ76KCDOvzvzC3EMVEMnuly6jlZH8pxcSIwsUcyLk7WcV5fO+bvMF+GSXh7aB3ndj37wMST2sp4OjGR9DisLeKi3eI8nZhIehzWFnHRbnGeTkwkPQ5ri7hotzhPJyaSJQ68sfrUpz7VLb744mmieMcdd0xDiogP9lGOGr7pcGpgKp1jfqhnqW6ar/XEsBXbgqMXlTsU56Vz2FJeiWdsgcn+z6EnLFUql6+4xjnZs1G/5PxWylPcvPYnXj0jCOE1NIZSCE7Y/hrH/FTPki9ZTwamee3PqJ70aU098U0Tekp4u4pPJnIH+SBrOHMcNq/EObbApCewaVsZT7fYku5xWFuJw+ZbnKdbbEn3OKytxGHzLc7TLbakexzWVuKw+cRdf/31HX6ku8ACC3RLLbVUGr7hJyF6WGxJV0yULnHY/IhH7RZb0hUTpUscNj/iUbvFlnTFROkSh82PeNRusdT7wMQIqKAoTZKSbJzjHXrMNH/iWx18J4VGhu+R8OW2TrRq+yq1IebPtGvXa4vSvMaSfDleex+Y6JTIiWonJpKKidIRF+0Rj9qJiaRionTERXvEo3ZiIqmYKB1x0R7xqJ0YT+ILYjQufJGMN26PPvqoUkxJe1xqmwJ0MhTnpR2KKSaPR21TgE6G4ry0QzHF5PGobQrQyVCcl3YopphKPCkwMSKj0CiHkioH8lVvnHUeeCn5E6+8sXxJ7VfaL6Vrx7WMcrRrn5hL1ZiRApM6EU7SAp6uOC/tcfCm8Jwej9oa5/y3gLzeH6TbPWr3yD7fVrdthno2MBEcSZJEMuJRe8RFu2KiNDGRjHjUHnHRrpgoTUwkIx61R1y0KyZKExPJiEftERftionSxEQy4lF7xEW7YqI0MZGMeNQecdGumChNTCQjHrWXuFpgEs+ow6K0wNxkxKN2l0iMionSAnOTEY/aXSIxKiZKC8xNRjxqd4nEqJgoLTA3GfGo3SUSo2KitMDcZMSjdpdIjIqJ0gIbJFtgEndETlS7wNykYqK0SyTGiEftAnOTionSLpEYIx61C8xNKiZKu0RijHjULjA3qZgo7RKJMeJRu8DcpGKitEskxohH7QIbJKsCE+d/SEh9wOQoxKkkB/OoOzQDE3EqycE86gOgoxCnkhzMo+7QDEzEqSQH86gPgI5CnEpyMI+6QzMwEaeSHMyjPgA6CnEqycE86g7NwEScSnIwj/oA6CjEqSQH86g7NAMTcSrJwTzqA6CjEKeSHMyj7tAMTMSpJAfzqA+AjkKcSnIwj3qJxg1MBJPMyhKpzVdc48x/zQ0f1R7Nn1Pf4qhPmG7+jD1AX0HOT8+mG5i00rl0fNkTJXLYUl7jjD1Q8l0uP2Zr9yjnt1Je82fsgZLvcvklthaYxDM5x5XyBOYmS/hcvkskxhy2lCcwN1nC5/JdIjHmsKU8gbnJEj6X7xKJMYct5QnMTZbwuXyXSIw5bClPYG6yhM/lu0RizGFLeQIbJKcVmNjlGzA5SqlSmt84pzeUUx9qel75E79Qx/KwWKz/pJNOGvw4V+vH9LyqpzZX1sWTrZ4vbvt0AxNvBm+Y1fXmemniIS2H1T0etTXO/DzLvPInlmXFOtjY4QONapFFFkkSu4987WtfG6xCmWsHem+9dLvv89d9z92rcdyjFJi0oeROVMqzD0FJL+Fz+SUOXiztOWwpjxjLYfUSPpffOCceECxJizV8uPrk+uuvnxb0h8+wmwlWFcCKiKuttlr6EW/pJyrNnxP+1Gfx5dw++8BEJ+QewlIeMZEs4XP5ERftOWwpj5hIlvC5/IiL9hy2lEdMJEv4XH7ERXsOW8oDBkuw4oe62D0EgWfLLbdM2xTlMNhSCuswYZVKrFaJVSvBoQfrEUnFROmIi/aIR+3ERFIxUTrioj3iUTsxkVRMlI64aI941E6MlS0wtTW/pwQJbTg2jR4S1sPm6pPYTgmL8tccWAAfi8NhmLfEEkukNDcBsA2zpNech2VKHDaf5WukxZb0Gi6WKXHYfJavkdhZBnvLWQ6r13CxjMWWdJavkSWOFphaYKoKTNhVBL0ebE2EwILdaxFopnNgN130trBfHPh22223tMFiqZFq/ijnU5xNYwtwNP5rr712FMrwQed5RiElJpIlTuxdN2fOnIH51FNP7dBTnS7ngOx5JeKiPYct5RFjZR+YOMYvEeTyLRk5mE89hy3lEUtJDquX8Ll8Yikb59T5jJzfkIcNRhGQFlpooeLqkyVslI/tkTCsW2aZZRI/tuXG3me4T3PzHmE7JgTFNdZYI+1AEtVT7WxDlF49sVwt/qKDXJQeZ44rF5jIRTkqZ+485KKcm5x9YOLJchUq5RETyRI+lx9x0Z7DlvKIiWQJn8uPuGjPYUt5xESyhM/lR1y0Wyx6ElwOl6tPRou9WY5aHVtsH3vssWmVSyy/i+2bLrnkkuz/9rWcKMdrs/L4449Pe7V94xvfSHNeun8atjfCvnBLLrlk2tcOm01ie24eWGcKq3Ji6yO8gdx///3T1ko8B9YDR28QW0VhfzzwYbulnXfeuVtppZXSwnkf//jHB3u5RZwI3uDFmtzYmunkk09mdVJgxX8auEew7bfffsmmQzls973FFlt0Sy+9dHpJgfpxQ00UBg7XiU0IgJs9e3baIr0/yfMJXmMkLc7TS1xjC0w2euoJvYpZm+Ia52TPRv1ifebpiqvxJxZ343K4q6++evf1r3+9e/rpp71TjM32zDPPdF/96lfTg4KGiYeb2yTxOkY5GTGQeu3YSBMPMNYdxxrk2DobB77Bwu6/eHARrLB5AgICAxPs2Etur732Sptz3nDDDeltI/Z/47lQHvy6hPBmm22Wep2oA4I7tt7mvm01nKeddloa6qLs5Zdfnnp7WEedR67HxMCEoIj6ITBiCI0giEB02GGHpTqDAzqC8eOPP54oMYe46667kr6XvEbrT81HepRDsXqPxhaY9AQ2Pd2KWh7VG2edB9RnpTQa77e+9a1u7bXXTvMuGOIgIGlPou5s4ymFb6KwAy8eLgYo7sg7yhly13vNNdckTgQV2D/84Q+nN4rg/clPfpIeeg3ERxxxRB+YYMfuLth9l9zYudYGJmxvzgPbhy+44IIdeoU8EBxWWGGFpNZw8lzEb7vttt0xxxxDtfMCE3baxfmxZRZ5TjjhhDSMhY4DgQkT5TzOP//8wQabzCc+kixfI0tcfWBitKohY5kcKSZEEZ3xt8suuySJrmvtH7El2Th3rvYlfF7yI/M32mij/mNIDDWwYUDNvAjbwNyUqMc//MM/pCEQGio+1jz00ENTz6bmvLn2iUl7BhK0+e9+97vpMwY8uBdddFHavki5/+Vf/qUPTLCvuuqq/QMO/lNOOaXng44e07nnnttTXHzxxSkwIHjwD1t+4zMLBP4aTvwngS/p8a0YvgfDG9F99923P4cXmPAV/vLLLz+oMwIPeoqoLw4EJmwcwQNp5Nkj50/NG1cMAWcfmHgCWxlPJ0YlXh0n0lmzmpxhPsArfHTx0WOZn46rr766W3nlldP3UmhbmCCvObRdIv3QQw+lgIC3inhY8YfvqsCJ6x5XjwnDTx533HFHCvxPPfUUswYy6jHdfvvt6c0lAhwPbPGN4SaPN73pTVPeynEol+sxfeUrX5nSYxpHYKK/Wa8aSYyVKYYw0sE4yqFk5MAbD0xk6t8//uM/drV/ivPStXwo5/Go7eXKiWHB7rvvniZr0SDwsB5yyCGDCdpR2sW4yl5wwQXdmmuumQIH/oev2W1Fz23bJ3oe+DwBgQ3zR/z7+7//+3TtCMhrrbWWO8eEYW5pjgnPAHpMGphQn0022aTbaaedOryFxDwRnpELL7wwVRW6x4mhJya9uTEo3pLiPxANTBtvvHHq6eq1MzBhmI6eJkYamGO6+eab08Q/Jrv5vE+nx8TnnT5WXesRpYmHVI4UmBRsC3i64ry0xwGb2j0etSnGclhdcV66cf4m/c+Lt2L4mnvZZZftDjzwwPRWyfPbOG14UL0J+Bdyj/BmKjepi2+00IvCsA5zTxtssEF6+PHW7bOf/WwaRvGhwZwRhr94K4dJbswxoTwPPuRaT3wlj6Ezen0Yhr3hDW9Ib8FqOXEPgMHLgPe///1p8hzBkefA0BE76OJNIiaukY9JegzZcPzyl79MGHyWgeHgAQcc0D333HPJhrIMpkjj77zzzkt51FlPXmMkgSPGcli9xJUNTARHskRq8yMetVtsSVdMlC5x2PyIR+0WW9IVE6VLHDY/4lG7xZZ0xSCN37nhuyL8jAT/Y++5557ZV8glvlHzMZ+EHg3eiqFRlibgbT09vbYOHgc+B0AwYBnLiZ4Hhlb2YPkaabFzg9Oeg3pN/ViGmEiyfI0scbXAJJ6pcSTLCMxNsnyNdInEWMPFMgJzkyxvJbr++F8YQ6CFF16422GHHdIQyCUbwYi5l+OOO64fRq633nqpx4SeU+6w9fP0HD6XpxyYa7n11ltTILrqqqvS27N/+qd/6gMT5mzQA8GBL6vxwoCfGyi3ckbpucGpdfHSUd3U7vGoTTFRWnGaboFJvBE5Ue0Cc5OKidIukRgjHrULzE0qJpfGfAzmNTCEwUeQ+PgSw57pHvhmBnNG2KkXw0bwoZcWHbm6lfIiLtoVj2+G8LEirhPDI7wFVDteq2NIhmETPqA8+uijSTOQionSc4NzUBlHieqmdodmYFJMlB4ARakKTKXxovC4yVzlGufkx5P0hetEMc5Lf+JzEHyJjPknNJ5NN920++EPfyi185OPPPJImpcBHsNEDINqAhJZ5+W149y1R6vnZPuGL9jG6RfqJX+6gYlgkllZIrX5imucwxumvrF+K+mKmVf+xAeD+OZplVVWSQEKX4tj0ro0BMN3QlhZAJO/GBZieIhhIq+ldK02n+Uh59W12zrl9FbPiXY+3XvkBiZ1bi6duyG5vBy2lJfD5/JK+Fx+Dp/Ly2FLeTl8Lq+Ez+Xn8Lm8HLaUl8Pn8kr4XL7i8TMSTFrzK21MXkPnR5p4i4UfAWN+CsMjDAcxLLS8yumlLc7TPR61eRzWpjgvbXGe7vGozeOwNsV5aYvzdI9HbR6HtSlO0y0wiTes0zxdYG7S47A2l0iMFufpAnOTHoe15YjwFfPp61PgqQAADeVJREFUp5/e4WM/NCp8jYzvd9A7wnc3f/M3f5MNSOTOcebyWL5G5vC5vBoulsnhc3ksXyNz+FxeDRfL5PC5PJavkTl8Lq+Gi2VyeORNKzCxe1YitfmshCcb5wubv7C+nVf+xEeKeEuFCWLMIe29997p40BbP+rzqp7aRlkXT7Z6vrjt0w1MvBm8YVbXm+uliYe0HFb3eNTWOPNj+ObPyTk8bS9eurWl+a8tpcCkAcO7gdZmH4KSbnGeXuJg46Hd47A2YiyH1S3O0xvnZAAo+cLzn7WVONo9mvzP3PrM02e6P/vAxAbgXay1ERNJi/P0iIt2j8PaiImkxXl6xEW7x2FtxETS4jw94qLd47A2YiJpcZ4ecdHucVgbMZG0OE+PuGj3OKyNmEhanKdHXLR7HNZGTCQtztNLXC0wtTW/0xsyr/FYW6kx2XyL83SLLekeh7WVOGy+xXm6xZZ0j8PaShw23+I83WJLusdhbSUOm29xnm6x1FtgaoGpBSbvyTE2PjiRNDBXjbhod0mMkZhIGpirRly0uyTGSIyVfWDimNTgXNWSkYP51F0SYySWkhxWNzBXJZaycU6dH3IdaIz0I2XzZ/Mn2gLbgWkurso2REmOPjDR4LIYIzGRNDBXjbhod0mMkZhIGpirRly0uyTGSEwkDcxVIy7aXRJjJCaSBuaqERftLokxEhNJA3PViIt2l8QYiYmkgblqxEW7S2KMxETSwFy1xDW2wMRIlzuRWzNjVHzjnPyfWP1iXOaqimv+bP7U9oD0KIdi53ZbGltg0krb9HQv3vKo3jjrPKA+89J1bBOlPB61Nc46D6jPvHQd20vjHvWBiRFwnBffOKf/P1Kugc4Ef2L5WGwggKVDsLpjaa1r285y16t5M+HaUd9Wz/G0+T4wsRHYBuPpxETS47C2iIt2i/N0YiLpcVhbxEW7xXk6MZH0OKwt4qLd4jydGJXY0gjrp2MNIzQqrFeEdZuwTdFRRx2V9lMblVP5mfY4rI2YSFqcp0dctHsc1kZMJC3O0yMu2j0OayMmkhbn6SWuFJgY5VFolENJlQP5qjfOOg/MRH/ec889aXF+/FAX+5dhlQEsxYuGBYmF8LGeNpY7wbInWIg/d8zEa9c23tr8b/oVI3L3t5RXuu8pMCnIOtjTFeelPQ5WjDfZ41Fb45xsCJ4v1Gde2uPI3aP77rsvBRoEHwQeBKBFF1104lfhZtsqbBKJhfsRnLD8CdYSx04lek6vbmpTjK2X1RXnpRvnvG1LuXuTDUy8wZHMEebyIh615/C5PMVE6Rw+lxfxqD2Hz+UpJkrn8Lm8iEftOXwuTzFe+tprr03rKy200EJpfSWsv4R0akgmINk8BCUEMC7Pi91YLrvsspE+8PTqZm2568zlWZyn5/C5PI/D2nL4XJ7iuD2T5mlad0nJcTFPMVGamEhGPGovcbXAJJ5Rh0VpgbnJiEftLpEYFROlBeYmIx4s0o9Agnkj7CKL3WyRtsGnRgcODxY3m5w9e3b18rxRPdVuL/gHP/hBWiMKgRFDz3XXXbc79dRT0/ZUivPSlrOkexzWVuKw+YpDvbEZAvKwsy923FX7GWec0WHbqOhQTJSOuGiPeNROjJUtMIlH1GFRWmBuMuJRu0skRsVEaYG5yRLPmWeemfYzQ0PBzrUIKNMNSDZoYRMCbDCJtZtgi5bnxQWU6pnL1ws+66yz0pDz8MMP737+85932AwBu6BsueWWaVuqHD6Xp5xeOoct5Xk8aivhc4FJcV66xJnL93jUlsOW8hSn6arAxPkfklNXIi9NnEpyMI+6x6M24lSSg3nUFeeliVNJDuZR93jURpxKcjCPuuK8NHEqycE86h6P2oiDfPjhh7sTTzyx3+MNgQMbOdrAMk4dDxc2YwQnhnu6PG+pnqwzr9XqxGFzR7wdPPjgg5k1kMTddtttHTbFXHrppVNdsAwwfAE7zoGNIbHVFDbCxLwaghp2ut1jjz1SDwz2Sy65JHEDA/0zn/lM2hAT14SNG7BlOM+H7b9xPmxEudpqq6VNHrgkMUiOPPLItKY63nDCN9jam1gO5Xbbbbc0lMZuMzgfFuZDGR3KYT5wm222yZ6H9cT+edg6C/fhHe94R4cdf3ku+nfgNEchTiU5mEe9ROMGJoJJZmWJ1OYrrnHmvz6Gj2qPueVPvPLHlkrYlggNA8EIO8COMwBFXDjn6quv3p8fGx48/fTTvWumc+033nhj4kNPKXeAEwEGw1PsmIuttG+66aZ0/Ycddlj/gOLBX3vttVOPC7u9IEChrgii+F4LdUUZHOBEep111kl80Pfdd99uww03TDY935NPPpk4ERTwyQUODNMQsLiHHb4Pw3bhvH4GJui5HhMDEzaHQB2w+UPuPKwneqsPPPBA4ocPsE47z0WZKlbxD8tDTvd5dwOTniCXztURjkA3Wf/uv//+rvZPcV66lg/lPB61vVw5H3rooe6QQw7ph1Ro6PweKQokc8uOh5rrh6+66qpp/7YnnnhiysOSa5fMY/u86KKLUmAqfeyJ8th0Ep87YDcX4k844YS0IzB11AlBiAeCFuapeDz66KPpPFoeHNTBDX+hp6TnIx572mFoiwM9FrzFxHbduG4c5IGsDUzoBeK6sKsNDz0PuHBdyCM/9rlDPahTEh9Jlq+RJa6xByZ81zK3GmvjnfWy9i2GK9iu+8EHH5zy0OQeAjZ6bMyJtuP1mDB5jDk05Tn//PO7pZZaqs/DA4yXADwwrHvve99LtcOQEefBt1rgQXnMbSknPq8Ah56PBHhDiWEkD0xgY1gFDF48XH311T1XbWBCUMYwVg89D+v5ne98p+dGGnXXeiNde1icp5c407OuRo+ENnbPFMf0vffem75nwTct/MN3LLV/xESylg/lIi7aX46c2MUEk9BoCJDjmthODSv4fKC2DOqE3gPK49OEK664YspDw7YJadsn55jQK8wdwGgPhlyY01ljjTXSucA5ncD0xS9+sa8rtrLCNZR6TNhlhj0mrSd6O3vttVcaOrJuGpgw3OZbOV47h3K5HpOeB3y4Li8wkVPr5KVZR09GnKlt6EmUjGDmWV1xXpp4SMthdY9HbY1zYq7K+s/q6jMvjf+N8eEjuv34HxrDKKRrg8fcKIcJYc53YZ4EG2pibof33l6r1fV6MTzBfzyYUEavHkN47CDMt3KY88EE9a677prmhLAZJ4a0do5p1B4TODBfhPm77bffPk2Eo5483y677JLmfrDDMba8OuaYY1K1Ebwuv/zyDvv2YecZBFV8pMpr18CEeStcF22QDEyYWsG82O677549D8oyMNF/7DFRJ6/600uzPKTlsHqJJ7UnJSgVzOXbk5T0HLaUV+LgxdJewufyibEcVs9hS3kvVU58+4KfjrCnueaaa6ZtmOZG4Clx4gfAGH7AjjkcfLLAe1W6H7l8e48wX7PRRhul3hd6YAh2X/7yl/vdgzHRvPXWW6dJZ7wFO+CAA9LwjNyYmAcH63LEEUekwEYdE9SoM4IKDpRHjwkfoeLbqXe/+92Dn+TwfBi+4c3nPvvs04ED9b700ktTDwn1hB1DOvR+eDDwQL/44otTAMew85Of/GQqooHr1ltv7TbffPPEw/PwbSMKo54acJFGnj2sP0u6xXl6iSO1DToWcpRDcV66cdZ5wPOh2urYJkopzktbTszjHHTQQWmOBT0n9Fzm9jAPH24uu+yyaUiJOZU5c+b0QYB1t/X0dGIi6XFYW8RFO3D2gbdc1ImJJMvXyIiL9houliEmkixfI0tcLTC1Nb/Tw19qRI899lh6DY5eDOagKFPDGdMcEl6Lo2eADTIxnPTmkEr1zOWXGr3Nz2FLeRZb0oFvgankxcn8kv9aYGqByQ1MbEL4lgivyvmNEXs2LyRA4cNBfKiICe2PfOQj6duhUkNlPutTI4mJZA0Xy0RctKN8C0z0WlnSX1b2gYljvTLFVIslIwfzqU9FlnOIpSSH1csMUy3EUjbOyY886YupXsvnPPvss+mrcEzUovHgN2ejBie8BcXwEBLzWXiTy3tDyXpZPV+rfC6xlI1z+vcdHqYfKeemP/vAxJPlb3E+l5hI5tH53IiL9jw6n0tMJPPofG7ERXsenc8lJpJ5dD434qI9j87nAoO3SpiUxpsiNCL0fKIAhTIYDmIyF/NX+LCTB+sRSZavkREX7TVcLENMJFm+RkZctNdwsQwxkWT5Ghlx0V7DxTLEWDm2wGSjp56IlaiRimuck//DqV9q/Mgyiptb/sQkNSar0ZiwtIkNUMzDmzb8bAPzVvZ4Meqp59C0rYunK25u+VPPoWmvXtamuJlYz7EFJnWETVunebrFlnSPw9pKHDbf4jzdYku6x2FtJQ6bb3GebrEl3eOwthLHhRdemH6oil4RhmqYzEYDwxfbWF43F5DIXeK0+SxfIy22pNdwsUyJw+azfI202JJew8UyJQ6bz/I10mJLeg0Xy5Q4+sDEqEpAjSyRMr9xjvfzi5nizyuvvLJfEA4fDJZ+o6ZtjG2mJGfKtbd6jqfN94GJDUIbS5QmJpIRj9ojLtoVE6WJiWTEo/aIi3bFRGliIhnxqD3iol0xUZqYSEY8ao+4aFdMlCYmkhGP2iMu2hUTpYmJZMSj9oiLdsVEaWIiGfGovcSVAhOjPAqNciipciBf9cZZ54Hmz/hnNnWenCjV/Dlz/ZkCk95sG1Q8XXFe2uNg42Eg83jU1jjnvwXk9f4g3e5Ru0f2+ba6bTPUEZj+P6gdM1KZFi+yAAAAAElFTkSuQmCC;" parent="WIyWlLk6GJQsqaUBKTNV-1" vertex="1">
                    <mxGeometry x="40" y="-390" width="294" height="185" as="geometry"/>
                </mxCell>
                <mxCell id="VMtLbLihS7SMPBcjPKBf-10" value="&lt;font style=&quot;font-size: 26px&quot;&gt;Legend&lt;/font&gt;" style="text;html=1;strokeColor=none;fillColor=none;align=center;verticalAlign=middle;whiteSpace=wrap;rounded=0;" parent="WIyWlLk6GJQsqaUBKTNV-1" vertex="1">
                    <mxGeometry x="50" y="-430" width="290" height="20" as="geometry"/>
                </mxCell>
                <mxCell id="VMtLbLihS7SMPBcjPKBf-12" value="ConsumerRole" style="swimlane;fontStyle=0;align=center;verticalAlign=top;childLayout=stackLayout;horizontal=1;startSize=26;horizontalStack=0;resizeParent=1;resizeLast=0;collapsible=1;marginBottom=0;rounded=0;shadow=0;strokeWidth=1;" parent="WIyWlLk6GJQsqaUBKTNV-1" vertex="1">
                    <mxGeometry x="330" y="130" width="220" height="138" as="geometry">
                        <mxRectangle x="130" y="380" width="160" height="26" as="alternateBounds"/>
                    </mxGeometry>
                </mxCell>
                <mxCell id="VMtLbLihS7SMPBcjPKBf-13" value="- consumers: Role" style="text;align=left;verticalAlign=top;spacingLeft=4;spacingRight=4;overflow=hidden;rotatable=0;points=[[0,0.5],[1,0.5]];portConstraint=eastwest;" parent="VMtLbLihS7SMPBcjPKBf-12" vertex="1">
                    <mxGeometry y="26" width="220" height="26" as="geometry"/>
                </mxCell>
                <mxCell id="VMtLbLihS7SMPBcjPKBf-14" value="" style="line;html=1;strokeWidth=1;align=left;verticalAlign=middle;spacingTop=-1;spacingLeft=3;spacingRight=3;rotatable=0;labelPosition=right;points=[];portConstraint=eastwest;" parent="VMtLbLihS7SMPBcjPKBf-12" vertex="1">
                    <mxGeometry y="52" width="220" height="8" as="geometry"/>
                </mxCell>
                <mxCell id="VMtLbLihS7SMPBcjPKBf-15" value="+ addConsumer(address)" style="text;align=left;verticalAlign=top;spacingLeft=4;spacingRight=4;overflow=hidden;rotatable=0;points=[[0,0.5],[1,0.5]];portConstraint=eastwest;fontStyle=0" parent="VMtLbLihS7SMPBcjPKBf-12" vertex="1">
                    <mxGeometry y="60" width="220" height="26" as="geometry"/>
                </mxCell>
                <mxCell id="VMtLbLihS7SMPBcjPKBf-16" value="+ renounceConsumer(address)" style="text;align=left;verticalAlign=top;spacingLeft=4;spacingRight=4;overflow=hidden;rotatable=0;points=[[0,0.5],[1,0.5]];portConstraint=eastwest;" parent="VMtLbLihS7SMPBcjPKBf-12" vertex="1">
                    <mxGeometry y="86" width="220" height="26" as="geometry"/>
                </mxCell>
                <mxCell id="VMtLbLihS7SMPBcjPKBf-17" value="+ isConsumer(address) :Â  bool" style="text;align=left;verticalAlign=top;spacingLeft=4;spacingRight=4;overflow=hidden;rotatable=0;points=[[0,0.5],[1,0.5]];portConstraint=eastwest;" parent="VMtLbLihS7SMPBcjPKBf-12" vertex="1">
                    <mxGeometry y="112" width="220" height="26" as="geometry"/>
                </mxCell>
                <mxCell id="VMtLbLihS7SMPBcjPKBf-18" value="DistributorRole" style="swimlane;fontStyle=0;align=center;verticalAlign=top;childLayout=stackLayout;horizontal=1;startSize=26;horizontalStack=0;resizeParent=1;resizeLast=0;collapsible=1;marginBottom=0;rounded=0;shadow=0;strokeWidth=1;" parent="WIyWlLk6GJQsqaUBKTNV-1" vertex="1">
                    <mxGeometry x="600" y="130" width="217" height="138" as="geometry">
                        <mxRectangle x="130" y="380" width="160" height="26" as="alternateBounds"/>
                    </mxGeometry>
                </mxCell>
                <mxCell id="VMtLbLihS7SMPBcjPKBf-19" value="- distributors: Role" style="text;align=left;verticalAlign=top;spacingLeft=4;spacingRight=4;overflow=hidden;rotatable=0;points=[[0,0.5],[1,0.5]];portConstraint=eastwest;" parent="VMtLbLihS7SMPBcjPKBf-18" vertex="1">
                    <mxGeometry y="26" width="217" height="26" as="geometry"/>
                </mxCell>
                <mxCell id="VMtLbLihS7SMPBcjPKBf-20" value="" style="line;html=1;strokeWidth=1;align=left;verticalAlign=middle;spacingTop=-1;spacingLeft=3;spacingRight=3;rotatable=0;labelPosition=right;points=[];portConstraint=eastwest;" parent="VMtLbLihS7SMPBcjPKBf-18" vertex="1">
                    <mxGeometry y="52" width="217" height="8" as="geometry"/>
                </mxCell>
                <mxCell id="VMtLbLihS7SMPBcjPKBf-21" value="+ addDistributor(address)" style="text;align=left;verticalAlign=top;spacingLeft=4;spacingRight=4;overflow=hidden;rotatable=0;points=[[0,0.5],[1,0.5]];portConstraint=eastwest;fontStyle=0" parent="VMtLbLihS7SMPBcjPKBf-18" vertex="1">
                    <mxGeometry y="60" width="217" height="26" as="geometry"/>
                </mxCell>
                <mxCell id="VMtLbLihS7SMPBcjPKBf-22" value="+ renounceDistributor(address)" style="text;align=left;verticalAlign=top;spacingLeft=4;spacingRight=4;overflow=hidden;rotatable=0;points=[[0,0.5],[1,0.5]];portConstraint=eastwest;" parent="VMtLbLihS7SMPBcjPKBf-18" vertex="1">
                    <mxGeometry y="86" width="217" height="26" as="geometry"/>
                </mxCell>
                <mxCell id="VMtLbLihS7SMPBcjPKBf-23" value="+ isDistributor(address) :Â  bool" style="text;align=left;verticalAlign=top;spacingLeft=4;spacingRight=4;overflow=hidden;rotatable=0;points=[[0,0.5],[1,0.5]];portConstraint=eastwest;" parent="VMtLbLihS7SMPBcjPKBf-18" vertex="1">
                    <mxGeometry y="112" width="217" height="26" as="geometry"/>
                </mxCell>
                <mxCell id="VMtLbLihS7SMPBcjPKBf-24" value="RetailerRole" style="swimlane;fontStyle=0;align=center;verticalAlign=top;childLayout=stackLayout;horizontal=1;startSize=26;horizontalStack=0;resizeParent=1;resizeLast=0;collapsible=1;marginBottom=0;rounded=0;shadow=0;strokeWidth=1;" parent="WIyWlLk6GJQsqaUBKTNV-1" vertex="1">
                    <mxGeometry x="870" y="130" width="210" height="138" as="geometry">
                        <mxRectangle x="130" y="380" width="160" height="26" as="alternateBounds"/>
                    </mxGeometry>
                </mxCell>
                <mxCell id="VMtLbLihS7SMPBcjPKBf-25" value="+ retailers: Role" style="text;align=left;verticalAlign=top;spacingLeft=4;spacingRight=4;overflow=hidden;rotatable=0;points=[[0,0.5],[1,0.5]];portConstraint=eastwest;" parent="VMtLbLihS7SMPBcjPKBf-24" vertex="1">
                    <mxGeometry y="26" width="210" height="26" as="geometry"/>
                </mxCell>
                <mxCell id="VMtLbLihS7SMPBcjPKBf-26" value="" style="line;html=1;strokeWidth=1;align=left;verticalAlign=middle;spacingTop=-1;spacingLeft=3;spacingRight=3;rotatable=0;labelPosition=right;points=[];portConstraint=eastwest;" parent="VMtLbLihS7SMPBcjPKBf-24" vertex="1">
                    <mxGeometry y="52" width="210" height="8" as="geometry"/>
                </mxCell>
                <mxCell id="VMtLbLihS7SMPBcjPKBf-27" value="+ addRetailer(address)" style="text;align=left;verticalAlign=top;spacingLeft=4;spacingRight=4;overflow=hidden;rotatable=0;points=[[0,0.5],[1,0.5]];portConstraint=eastwest;fontStyle=0" parent="VMtLbLihS7SMPBcjPKBf-24" vertex="1">
                    <mxGeometry y="60" width="210" height="26" as="geometry"/>
                </mxCell>
                <mxCell id="VMtLbLihS7SMPBcjPKBf-28" value="+ renounceRetailer(address)" style="text;align=left;verticalAlign=top;spacingLeft=4;spacingRight=4;overflow=hidden;rotatable=0;points=[[0,0.5],[1,0.5]];portConstraint=eastwest;" parent="VMtLbLihS7SMPBcjPKBf-24" vertex="1">
                    <mxGeometry y="86" width="210" height="26" as="geometry"/>
                </mxCell>
                <mxCell id="VMtLbLihS7SMPBcjPKBf-29" value="+ isRetailer(address) :Â  bool" style="text;align=left;verticalAlign=top;spacingLeft=4;spacingRight=4;overflow=hidden;rotatable=0;points=[[0,0.5],[1,0.5]];portConstraint=eastwest;" parent="VMtLbLihS7SMPBcjPKBf-24" vertex="1">
                    <mxGeometry y="112" width="210" height="26" as="geometry"/>
                </mxCell>
                <mxCell id="VMtLbLihS7SMPBcjPKBf-31" value="" style="endArrow=diamondThin;endFill=1;endSize=24;html=1;entryX=0.5;entryY=0;entryDx=0;entryDy=0;exitX=0.506;exitY=0.425;exitDx=0;exitDy=0;exitPerimeter=0;" parent="WIyWlLk6GJQsqaUBKTNV-1" source="VMtLbLihS7SMPBcjPKBf-32" target="zkfFHV4jXpPFQw0GAbJ--0" edge="1">
                    <mxGeometry width="160" relative="1" as="geometry">
                        <mxPoint x="580" y="310" as="sourcePoint"/>
                        <mxPoint x="500" y="390" as="targetPoint"/>
                    </mxGeometry>
                </mxCell>
                <mxCell id="VMtLbLihS7SMPBcjPKBf-32" value="" style="line;strokeWidth=1;fillColor=none;align=left;verticalAlign=middle;spacingTop=-1;spacingLeft=3;spacingRight=3;rotatable=0;labelPosition=right;points=[];portConstraint=eastwest;" parent="WIyWlLk6GJQsqaUBKTNV-1" vertex="1">
                    <mxGeometry x="160" y="300" width="830" height="8" as="geometry"/>
                </mxCell>
                <mxCell id="VMtLbLihS7SMPBcjPKBf-35" value="" style="line;strokeWidth=2;direction=south;html=1;" parent="WIyWlLk6GJQsqaUBKTNV-1" vertex="1">
                    <mxGeometry x="160" y="268" width="10" height="42" as="geometry"/>
                </mxCell>
                <mxCell id="VMtLbLihS7SMPBcjPKBf-36" value="" style="line;strokeWidth=2;direction=south;html=1;" parent="WIyWlLk6GJQsqaUBKTNV-1" vertex="1">
                    <mxGeometry x="435" y="268" width="10" height="42" as="geometry"/>
                </mxCell>
                <mxCell id="VMtLbLihS7SMPBcjPKBf-37" value="" style="line;strokeWidth=2;direction=south;html=1;" parent="WIyWlLk6GJQsqaUBKTNV-1" vertex="1">
                    <mxGeometry x="710" y="268" width="10" height="42" as="geometry"/>
                </mxCell>
                <mxCell id="VMtLbLihS7SMPBcjPKBf-38" value="" style="line;strokeWidth=2;direction=south;html=1;" parent="WIyWlLk6GJQsqaUBKTNV-1" vertex="1">
                    <mxGeometry x="980" y="266" width="10" height="42" as="geometry"/>
                </mxCell>
                <mxCell id="VMtLbLihS7SMPBcjPKBf-39" value="Ownable" style="swimlane;fontStyle=2;align=center;verticalAlign=top;childLayout=stackLayout;horizontal=1;startSize=26;horizontalStack=0;resizeParent=1;resizeLast=0;collapsible=1;marginBottom=0;rounded=0;shadow=0;strokeWidth=1;" parent="WIyWlLk6GJQsqaUBKTNV-1" vertex="1">
                    <mxGeometry x="1150" y="130" width="220" height="160" as="geometry">
                        <mxRectangle x="230" y="140" width="160" height="26" as="alternateBounds"/>
                    </mxGeometry>
                </mxCell>
                <mxCell id="VMtLbLihS7SMPBcjPKBf-40" value="origOwner" style="text;align=left;verticalAlign=top;spacingLeft=4;spacingRight=4;overflow=hidden;rotatable=0;points=[[0,0.5],[1,0.5]];portConstraint=eastwest;" parent="VMtLbLihS7SMPBcjPKBf-39" vertex="1">
                    <mxGeometry y="26" width="220" height="26" as="geometry"/>
                </mxCell>
                <mxCell id="VMtLbLihS7SMPBcjPKBf-42" value="" style="line;html=1;strokeWidth=1;align=left;verticalAlign=middle;spacingTop=-1;spacingLeft=3;spacingRight=3;rotatable=0;labelPosition=right;points=[];portConstraint=eastwest;" parent="VMtLbLihS7SMPBcjPKBf-39" vertex="1">
                    <mxGeometry y="52" width="220" height="8" as="geometry"/>
                </mxCell>
                <mxCell id="VMtLbLihS7SMPBcjPKBf-43" value="+ owner : address&#10;+ isOwner : bool&#10;+ renounceOwnerShip&#10;+ transferOwnership: address" style="text;align=left;verticalAlign=top;spacingLeft=4;spacingRight=4;overflow=hidden;rotatable=0;points=[[0,0.5],[1,0.5]];portConstraint=eastwest;" parent="VMtLbLihS7SMPBcjPKBf-39" vertex="1">
                    <mxGeometry y="60" width="220" height="64" as="geometry"/>
                </mxCell>
                <mxCell id="VMtLbLihS7SMPBcjPKBf-44" value="Supplychain" style="swimlane;fontStyle=2;align=center;verticalAlign=top;childLayout=stackLayout;horizontal=1;startSize=26;horizontalStack=0;resizeParent=1;resizeLast=0;collapsible=1;marginBottom=0;rounded=0;shadow=0;strokeWidth=1;" parent="WIyWlLk6GJQsqaUBKTNV-1" vertex="1">
                    <mxGeometry x="460" y="-390" width="240" height="370" as="geometry">
                        <mxRectangle x="230" y="140" width="160" height="26" as="alternateBounds"/>
                    </mxGeometry>
                </mxCell>
                <mxCell id="VMtLbLihS7SMPBcjPKBf-45" value="+ upc : uintÂ &#10;+ sku : uint&#10;+items : mapping(uint, item)&#10;+itemsHistory : mapping(uint, String[])&#10;+ defaultState : State&#10;" style="text;align=left;verticalAlign=top;spacingLeft=4;spacingRight=4;overflow=hidden;rotatable=0;points=[[0,0.5],[1,0.5]];portConstraint=eastwest;" parent="VMtLbLihS7SMPBcjPKBf-44" vertex="1">
                    <mxGeometry y="26" width="240" height="84" as="geometry"/>
                </mxCell>
                <mxCell id="VMtLbLihS7SMPBcjPKBf-54" value="+ kill&#10;+ harvestItem(&#10;Â Â Â Â uint, address, string, string, &#10;Â Â Â Â string, string, string)&#10;+ processItem(uint)&#10;+ packItem(uint)&#10;+ sellItem(uint, uint)&#10;+ buyItem(uint)&#10;+ shipItem(uint)&#10;+ receiveItem(uint)&#10;+ purchaseItem(uint)&#10;+ fetchItemBufferOne(uint):&#10;Â Â Â Â uint,uint,address,address,&#10;Â Â Â Â string,string,string,string&#10;+ fetchItemBufferOne(uint):&#10;Â Â Â Â uint, uint,uint,string,uint,uint,&#10;Â Â Â Â address,address,address&#10;" style="text;align=left;verticalAlign=top;spacingLeft=4;spacingRight=4;overflow=hidden;rotatable=0;points=[[0,0.5],[1,0.5]];portConstraint=eastwest;" parent="VMtLbLihS7SMPBcjPKBf-44" vertex="1">
                    <mxGeometry y="110" width="240" height="260" as="geometry"/>
                </mxCell>
                <mxCell id="VMtLbLihS7SMPBcjPKBf-53" value="" style="line;html=1;strokeWidth=1;align=left;verticalAlign=middle;spacingTop=-1;spacingLeft=3;spacingRight=3;rotatable=0;labelPosition=right;points=[];portConstraint=eastwest;" parent="WIyWlLk6GJQsqaUBKTNV-1" vertex="1">
                    <mxGeometry x="460" y="-280" width="240" height="8" as="geometry"/>
                </mxCell>
                <mxCell id="VMtLbLihS7SMPBcjPKBf-66" value="" style="endArrow=block;endSize=10;endFill=0;shadow=0;strokeWidth=1;rounded=0;edgeStyle=elbowEdgeStyle;elbow=vertical;entryX=0.5;entryY=0;entryDx=0;entryDy=0;" parent="WIyWlLk6GJQsqaUBKTNV-1" source="VMtLbLihS7SMPBcjPKBf-54" target="zkfFHV4jXpPFQw0GAbJ--6" edge="1">
                    <mxGeometry width="160" relative="1" as="geometry">
                        <mxPoint x="410" y="360" as="sourcePoint"/>
                        <mxPoint x="300" y="258" as="targetPoint"/>
                        <Array as="points">
                            <mxPoint x="380" y="50"/>
                        </Array>
                    </mxGeometry>
                </mxCell>
                <mxCell id="VMtLbLihS7SMPBcjPKBf-67" value="" style="endArrow=block;endSize=10;endFill=0;shadow=0;strokeWidth=1;rounded=0;edgeStyle=elbowEdgeStyle;elbow=vertical;entryX=0.545;entryY=-0.029;entryDx=0;entryDy=0;entryPerimeter=0;exitX=0.5;exitY=0.999;exitDx=0;exitDy=0;exitPerimeter=0;" parent="WIyWlLk6GJQsqaUBKTNV-1" source="VMtLbLihS7SMPBcjPKBf-54" target="VMtLbLihS7SMPBcjPKBf-12" edge="1">
                    <mxGeometry width="160" relative="1" as="geometry">
                        <mxPoint x="590" y="-10" as="sourcePoint"/>
                        <mxPoint x="175" y="140" as="targetPoint"/>
                        <Array as="points">
                            <mxPoint x="520" y="50"/>
                        </Array>
                    </mxGeometry>
                </mxCell>
                <mxCell id="VMtLbLihS7SMPBcjPKBf-68" value="" style="endArrow=block;endSize=10;endFill=0;shadow=0;strokeWidth=1;rounded=0;edgeStyle=elbowEdgeStyle;elbow=vertical;" parent="WIyWlLk6GJQsqaUBKTNV-1" source="VMtLbLihS7SMPBcjPKBf-54" edge="1">
                    <mxGeometry width="160" relative="1" as="geometry">
                        <mxPoint x="600" as="sourcePoint"/>
                        <mxPoint x="725" y="128" as="targetPoint"/>
                        <Array as="points">
                            <mxPoint x="580" y="50"/>
                        </Array>
                    </mxGeometry>
                </mxCell>
                <mxCell id="VMtLbLihS7SMPBcjPKBf-69" value="" style="endArrow=block;endSize=10;endFill=0;shadow=0;strokeWidth=1;rounded=0;edgeStyle=elbowEdgeStyle;elbow=vertical;entryX=0.5;entryY=0;entryDx=0;entryDy=0;" parent="WIyWlLk6GJQsqaUBKTNV-1" source="VMtLbLihS7SMPBcjPKBf-54" target="VMtLbLihS7SMPBcjPKBf-24" edge="1">
                    <mxGeometry width="160" relative="1" as="geometry">
                        <mxPoint x="610" y="10" as="sourcePoint"/>
                        <mxPoint x="980" y="120" as="targetPoint"/>
                        <Array as="points">
                            <mxPoint x="780" y="50"/>
                        </Array>
                    </mxGeometry>
                </mxCell>
                <mxCell id="VMtLbLihS7SMPBcjPKBf-70" value="" style="endArrow=block;endSize=10;endFill=0;shadow=0;strokeWidth=1;rounded=0;edgeStyle=elbowEdgeStyle;elbow=vertical;" parent="WIyWlLk6GJQsqaUBKTNV-1" source="VMtLbLihS7SMPBcjPKBf-54" target="VMtLbLihS7SMPBcjPKBf-39" edge="1">
                    <mxGeometry width="160" relative="1" as="geometry">
                        <mxPoint x="620" y="20" as="sourcePoint"/>
                        <mxPoint x="205" y="170" as="targetPoint"/>
                        <Array as="points">
                            <mxPoint x="920" y="50"/>
                        </Array>
                    </mxGeometry>
                </mxCell>
            </root>
        </mxGraphModel>
    </diagram>
</mxfile>